PathFileType	4	(x/y/z)	S06_M20_T24
DataRate	CameraRate	NumFrames	NumMarkers	Units	OrigDataRate	OrigDataStartFrame	OrigNumFrames
240	240	5	51	mm	240	181	481
Frame#	Time	Sternum			R.Acromium			L.Acromium			Top.Head			R.ASIS			L.ASIS			R.PSIS			L.PSIS			R.Great.Tro			L.Great.Tro			R.Iliac.Crest			L.Iliac.Crest			V.Sacral			R.Thigh.Upper.Post			R.Thigh.Lower.Ant			R.Thigh.Lower.Post			R.Thigh.Upper.Ant			R.Knee.Lat			R.Knee.Med			R.Shank.Upper.Post			R.Shank.Lower.Ant			R.Shank.Lower.Post			R.Shank.Upper.Ant			R.Ankle.Lat			R.Ankle.Med			R.Heel.Upper			R.Heel.Med			R.Heel.Lat			R.Toe.Lat			R.Toe.Med			R.Toe.Tip			L.Thigh.Upper.Post			L.Thigh.Lower.Ant			L.Thigh.Lower.Post			L.Thigh.Upper.Ant			L.Knee.Lat			L.Knee.Med			L.Shank.Upper.Post			L.Shank.Lower.Ant			L.Shank.Lower.Post			L.Shank.Upper.Ant			L.Ankle.Lat			L.Ankle.Med			L.Heel.Upper			L.Heel.Med			L.Heel.Lat			L.Toe.Lat			L.Toe.Med			L.Toe.Tip			Cervical.Spine			Back			
		X1	Y1	Z1	X2	Y2	Z2	X3	Y3	Z3	X4	Y4	Z4	X5	Y5	Z5	X6	Y6	Z6	X7	Y7	Z7	X8	Y8	Z8	X9	Y9	Z9	X10	Y10	Z10	X11	Y11	Z11	X12	Y12	Z12	X13	Y13	Z13	X14	Y14	Z14	X15	Y15	Z15	X16	Y16	Z16	X17	Y17	Z17	X18	Y18	Z18	X19	Y19	Z19	X20	Y20	Z20	X21	Y21	Z21	X22	Y22	Z22	X23	Y23	Z23	X24	Y24	Z24	X25	Y25	Z25	X26	Y26	Z26	X27	Y27	Z27	X28	Y28	Z28	X29	Y29	Z29	X30	Y30	Z30	X31	Y31	Z31	X32	Y32	Z32	X33	Y33	Z33	X34	Y34	Z34	X35	Y35	Z35	X36	Y36	Z36	X37	Y37	Z37	X38	Y38	Z38	X39	Y39	Z39	X40	Y40	Z40	X41	Y41	Z41	X42	Y42	Z42	X43	Y43	Z43	X44	Y44	Z44	X45	Y45	Z45	X46	Y46	Z46	X47	Y47	Z47	X48	Y48	Z48	X49	Y49	Z49	X50	Y50	Z50	X51	Y51	Z51	

181	0.75	-583.43	1266.8	292.26	-720.94	1466.2	464.38	-723.09	1472.7	113.39	-670.11	1788.1	295.46	-612.56	1035.7	409.06	-615.38	1026.6	155.53	NaN	NaN	NaN	-816.71	1050.5	244.06	-659.21	958.69	461.19	-731.88	959.58	105.61	-702.81	1101.9	446.13	-689.78	1099	123.33	-828.85	1013.1	287.48	-595.85	716.13	438.94	-525.64	655.35	395.41	-588.27	630.58	412.95	-531.57	743.75	416.72	-533.18	534.81	397.59	-544.03	540.63	267.65	-525.69	303	387.25	-452.77	254.59	362.22	-512.89	227.45	369.29	-467.44	328.92	378.9	-452.47	108.44	339.04	-437.15	122.78	255.05	-503.04	66.721	283.91	-488.63	37.636	253.68	-492.02	35.519	318.21	-318.05	55.904	363.9	-294.92	77.773	248.41	-234.74	106.43	296.09	-761.99	711.91	120.86	-731.48	614.52	162.53	-803.63	632.42	137.08	-693.51	699.8	141.15	-858.5	547.55	156.75	-806.35	531.19	267.08	-1026.7	384.32	182.64	-1010.4	297.71	174.47	-1071.2	328.72	202.07	-970.23	355.03	160.07	-1112.5	181.32	198.05	-1081.4	193.75	283.62	-1191.7	196.99	247.6	-1203.3	178.03	283.75	-1204.4	170.71	222	-1076.5	48.759	191.79	-1057.7	56.61	309.73	-994.13	40.285	260.16	-773.67	1522.5	289.42	-826.64	1247.9	283.61
182	0.75417	-577.27	1267.4	292.52	-714.98	1466.5	464.81	-717.33	1473	113.79	-664.46	1788.4	295.9	-606.22	1036.4	409.34	-609.12	1026.9	155.88	NaN	NaN	NaN	-810.36	1050.8	244.43	-652.89	959.49	461.66	-725.63	959.45	106.12	-696.41	1102.4	446.53	-683.32	1099.2	123.6	-822.52	1013.5	287.94	-589.69	716.79	439.48	-519.68	655.89	395.81	-582.23	631.17	413.58	-525.45	744.32	417.04	-527.39	535.19	398.18	-538.76	540.97	268.2	-521.86	303.17	387.81	-449.42	254.21	362.5	-509.75	227.56	369.82	-463.41	328.66	379.23	-450.74	108.15	339.27	-435.36	122.34	255.22	-502.07	67.357	284.12	-488.13	38.125	253.8	-491.51	35.935	318.34	-317.12	53.811	363.82	-293.71	75.31	248.24	-232.96	102.93	295.83	-754.24	711.45	120.45	-722.83	614.07	161.44	-795.26	631.6	136.36	-685.55	699.69	140.32	-849.68	546.64	155.78	-796.72	529.64	265.66	-1019.3	385.49	181.77	-1004.2	298.74	173.28	-1064.5	330.45	201.23	-963.32	355.52	158.94	-1107.6	183.46	196.86	-1076.4	195.62	282.49	-1185.7	201.6	246.3	-1198	183.32	282.6	-1199.3	175.61	220.86	-1075.3	49.689	191.52	-1056.2	57.743	309.38	-993.64	39.92	260.08	-767.87	1522.7	289.86	-820.37	1248.1	284.03
183	0.75833	-571.15	1267.9	292.78	-709.01	1466.8	465.23	-711.57	1473.4	114.19	-658.83	1788.8	296.33	-599.95	1037.1	409.65	-602.9	1027.2	156.26	NaN	NaN	NaN	-804.06	1051.1	244.77	-646.68	960.33	462.14	-719.36	959.31	106.65	-690.07	1103	446.93	-676.9	1099.4	123.87	-816.25	1013.9	288.38	-583.58	717.48	440.06	-513.75	656.48	396.27	-576.23	631.79	414.26	-519.38	744.93	417.44	-521.69	535.59	398.79	-533.39	541.37	268.8	-518.13	303.37	388.39	-446.18	253.86	362.81	-506.71	227.7	370.36	-459.48	328.4	379.61	-449.11	107.89	339.51	-433.66	121.97	255.42	-501.16	67.959	284.34	-487.65	38.617	253.92	-491.03	36.331	318.47	-316.28	51.83	363.81	-292.58	72.993	248.13	-231.31	99.58	295.65	-746.37	710.94	120.04	-714.02	613.6	160.33	-786.73	630.71	135.62	-677.45	699.57	139.49	-840.64	545.66	154.77	-786.89	528.04	264.2	-1011.6	386.64	180.83	-997.8	299.76	172.05	-1057.5	332.17	200.3	-956.15	355.98	157.77	-1102.3	185.66	195.63	-1071.1	197.54	281.31	-1179.4	206.32	244.88	-1192.3	188.73	281.32	-1193.9	180.63	219.61	-1074	50.772	191.21	-1054.7	59.016	308.99	-993.09	39.511	259.97	-762.06	1523	290.31	-814.13	1248.3	284.44
184	0.7625	-565.06	1268.5	293.04	-703.04	1467.1	465.65	-705.83	1473.9	114.58	-653.21	1789.2	296.77	-593.75	1037.8	410	-596.71	1027.5	156.67	NaN	NaN	NaN	-797.81	1051.4	245.08	-640.58	961.2	462.64	-713.08	959.16	107.19	-683.81	1103.6	447.31	-670.54	1099.6	124.14	-810.04	1014.3	288.79	-577.55	718.2	440.67	-507.88	657.11	396.8	-570.29	632.44	414.97	-513.38	745.57	417.92	-516.08	535.99	399.42	-527.93	541.83	269.44	-514.49	303.59	388.97	-443.03	253.53	363.16	-503.76	227.87	370.9	-455.64	328.16	380	-447.57	107.67	339.76	-432.04	121.65	255.64	-500.3	68.525	284.56	-487.19	39.102	254.05	-490.58	36.705	318.6	-315.51	49.975	363.84	-291.54	70.819	248.05	-229.79	96.383	295.52	-738.39	710.39	119.62	-705.04	613.1	159.22	-778.04	629.76	134.88	-669.24	699.45	138.66	-831.39	544.6	153.73	-776.89	526.4	262.73	-1003.7	387.76	179.79	-991.13	300.76	170.79	-1050.2	333.89	199.28	-948.73	356.4	156.57	-1096.9	187.91	194.36	-1065.7	199.52	280.09	-1172.8	211.13	243.35	-1186.3	194.25	279.92	-1188.1	185.78	218.25	-1072.5	52.017	190.86	-1052.9	60.434	308.55	-992.48	39.059	259.84	-756.26	1523.3	290.74	-807.94	1248.6	284.84
185	0.76667	-559.01	1269	293.29	-697.06	1467.5	466.06	-700.09	1474.3	114.97	-647.6	1789.6	297.19	-587.63	1038.5	410.38	-590.57	1027.8	157.11	NaN	NaN	NaN	-791.62	1051.8	245.37	-634.59	962.09	463.15	-706.78	959	107.74	-677.62	1104.3	447.69	-664.22	1099.8	124.41	-803.89	1014.7	289.17	-571.62	718.93	441.32	-502.06	657.74	397.39	-564.42	633.11	415.72	-507.44	746.22	418.47	-510.58	536.39	400.06	-522.4	542.35	270.11	-510.94	303.83	389.56	-439.97	253.23	363.52	-500.91	228.07	371.45	-451.9	327.93	380.41	-446.12	107.48	339.99	-430.52	121.39	255.86	-499.52	69.053	284.77	-486.76	39.572	254.17	-490.16	37.057	318.73	-314.82	48.254	363.9	-290.57	68.785	247.99	-228.39	93.347	295.41	-730.29	709.79	119.19	-695.91	612.59	158.12	-769.18	628.76	134.13	-660.9	699.32	137.83	-821.93	543.49	152.65	-766.72	524.74	261.25	-995.57	388.87	178.67	-984.23	301.74	169.49	-1042.7	335.59	198.18	-941.04	356.8	155.34	-1091.2	190.21	193.04	-1060.1	201.56	278.84	-1165.9	216.03	241.71	-1179.9	199.85	278.4	-1182	191.03	216.78	-1070.9	53.432	190.45	-1051.1	62.002	308.07	-991.78	38.564	259.68	-750.45	1523.6	291.18	-801.79	1248.9	285.24
